<svg height="512pt" viewBox="0 0 512 512" width="512pt" xmlns="http://www.w3.org/2000/svg"><path d="m512 256c0 141.386719-114.613281 256-256 256s-256-114.613281-256-256 114.613281-256 256-256 256 114.613281 256 256zm0 0" fill="#01cffa"/><path d="m482 87v300c0 8.285156-6.714844 15-15 15h-145.910156l13.636718 60h37.273438c5.523438 0 10 4.476562 10 10v6.894531c-37.199219 21.078125-80.191406 33.105469-126 33.105469s-88.800781-12.027344-126-33.101562v-6.898438c0-5.523438 4.476562-10 10-10h37.273438l13.636718-60h-145.910156c-8.285156 0-15-6.714844-15-15v-300c0-8.285156 6.714844-15 15-15h422c8.285156 0 15 6.714844 15 15zm0 0" fill="#1f3595"/><path d="m467 72h-402c-8.285156 0-15 6.714844-15 15v300c0 8.285156 6.714844 15 15 15h133.382812c6.414063 0 11.171876 5.960938 9.75 12.214844l-8.082031 35.570312c-1.421875 6.253906 3.332031 12.214844 9.75 12.214844h82.699219c4.21875 0 7.625 3.484375 7.496094 7.730469-.121094 4.105469-3.703125 7.269531-7.808594 7.269531h-132.1875c-5.523438 0-10 4.476562-10 10l.011719 2.097656c32.300781 14.714844 68.179687 22.902344 105.988281 22.902344 45.808594 0 88.800781-12.027344 126-33.105469v-6.894531c0-5.523438-4.476562-10-10-10h-37.273438l-13.636718-60h145.910156c8.285156 0 15-6.714844 15-15v-300c0-8.285156-6.714844-15-15-15zm-202.5 313h-17c-4.140625 0-7.5-3.359375-7.5-7.5s3.359375-7.5 7.5-7.5h17c4.140625 0 7.5 3.359375 7.5 7.5s-3.359375 7.5-7.5 7.5zm0 0" fill="#314dc8"/><path d="m452 350h-392c-5.523438 0-10-4.476562-10-10v-228c0-5.523438 4.476562-10 10-10h392c5.523438 0 10 4.476562 10 10v228c0 5.523438-4.476562 10-10 10zm0 0" fill="#fdbf43"/><path d="m452 350h-372c-5.523438 0-10-4.476562-10-10v-228c0-5.523438 4.476562-10 10-10h372c5.523438 0 10 4.476562 10 10v228c0 5.523438-4.476562 10-10 10zm0 0" fill="#fdcb6b"/><path d="m387.5 278.75c0 4.832031-3.917969 8.75-8.75 8.75s-8.75-3.917969-8.75-8.75 3.917969-8.75 8.75-8.75 8.75 3.917969 8.75 8.75zm17.5-8.75c-4.832031 0-8.75 3.917969-8.75 8.75s3.917969 8.75 8.75 8.75 8.75-3.917969 8.75-8.75-3.917969-8.75-8.75-8.75zm26.25 0c-4.832031 0-8.75 3.917969-8.75 8.75s3.917969 8.75 8.75 8.75 8.75-3.917969 8.75-8.75-3.917969-8.75-8.75-8.75zm0 0" fill="#fde5bd"/><path d="m415 194h-34c-8.285156 0-15-6.714844-15-15v-34c0-8.285156 6.714844-15 15-15h34c8.285156 0 15 6.714844 15 15v34c0 8.285156-6.714844 15-15 15zm0 0" fill="#fc6930"/><path d="m400 254h-24c-5.523438 0-10-4.476562-10-10v-24c0-5.523438 4.476562-10 10-10h24c5.523438 0 10 4.476562 10 10v24c0 5.523438-4.476562 10-10 10zm0 0" fill="#fc9368"/><path d="m159 290h-64c-8.285156 0-15-6.714844-15-15v-64c0-8.285156 6.714844-15 15-15h64c8.285156 0 15 6.714844 15 15v64c0 8.285156-6.714844 15-15 15zm0 0" fill="#f02399"/><path d="m164 180h-24c-5.523438 0-10-4.476562-10-10v-24c0-5.523438 4.476562-10 10-10h24c5.523438 0 10 4.476562 10 10v24c0 5.523438-4.476562 10-10 10zm0 0" fill="#fd4fb6"/><path d="m179.679688 216.464844-49.394532 49.390625-10.605468 10.609375c-1.953126 1.953125-5.121094 1.953125-7.074219 0l-35.355469-35.355469c-1.953125-1.953125-1.953125-5.117187 0-7.070313l7.070312-7.070312c1.953126-1.953125 5.121094-1.953125 7.074219 0l23.332031 23.332031c.78125.78125 2.046876.78125 2.828126 0l47.980468-47.980469c1.953125-1.953124 5.117188-1.953124 7.070313 0l7.070312 7.074219c1.953125 1.953125 1.953125 5.117188.003907 7.070313zm0 0" fill="#fff5f5"/><path d="m335 320h-130c-8.285156 0-15-6.714844-15-15v-130c0-8.285156 6.714844-15 15-15h130c8.285156 0 15 6.714844 15 15v130c0 8.285156-6.714844 15-15 15zm0 0" fill="#01988c"/><path d="m330.25 230.574219-9.695312-2.90625c-2.933594-.882813-5.316407-3.03125-6.488282-5.863281-.011718-.027344-.023437-.058594-.035156-.085938-1.175781-2.832031-1.015625-6.042969.4375-8.746094l4.800781-8.910156c1.394531-2.589844.925781-5.792969-1.15625-7.875l-4.300781-4.296875c-2.082031-2.082031-5.28125-2.554687-7.875-1.15625l-8.910156 4.796875c-2.699219 1.453125-5.910156 1.613281-8.746094.4375-.027344-.011719-.054688-.023438-.085938-.035156-2.832031-1.171875-4.980468-3.554688-5.859374-6.488282l-2.910157-9.691406c-.847656-2.820312-3.441406-4.753906-6.386719-4.753906h-6.078124c-2.945313 0-5.539063 1.933594-6.386719 4.753906l-2.910157 9.691406c-.878906 2.933594-3.027343 5.320313-5.859374 6.488282-.03125.011718-.058594.023437-.085938.035156-2.835938 1.175781-6.046875 1.015625-8.746094-.4375l-8.910156-4.796875c-2.59375-1.398437-5.792969-.925781-7.875 1.15625l-4.300781 4.296875c-2.082031 2.082031-2.550781 5.285156-1.15625 7.875l4.800781 8.910156c1.453125 2.703125 1.613281 5.914063.4375 8.746094-.011719.027344-.023438.058594-.035156.085938-1.171875 2.832031-3.554688 4.980468-6.488282 5.863281l-9.695312 2.90625c-2.820312.847656-4.75 3.441406-4.75 6.386719v6.078124c0 2.945313 1.929688 5.539063 4.75 6.386719l9.695312 2.910157c2.933594.878906 5.316407 3.027343 6.488282 5.859374.011718.03125.023437.058594.035156.085938 1.175781 2.835938 1.015625 6.046875-.4375 8.746094l-4.800781 8.910156c-1.394531 2.59375-.925781 5.792969 1.15625 7.875l4.300781 4.300781c2.082031 2.082031 5.28125 2.550781 7.875 1.15625l8.910156-4.800781c2.699219-1.453125 5.910156-1.613281 8.746094-.4375.027344.011719.054688.023438.085938.035156 2.832031 1.171875 4.980468 3.554688 5.859374 6.488282l2.910157 9.695312c.847656 2.820312 3.441406 4.75 6.386719 4.75h6.078124c2.945313 0 5.539063-1.929688 6.386719-4.75l2.910157-9.695312c.878906-2.933594 3.027343-5.316407 5.859374-6.488282.03125-.011718.058594-.023437.085938-.035156 2.835938-1.175781 6.046875-1.015625 8.746094.4375l8.910156 4.800781c2.59375 1.394531 5.792969.925781 7.875-1.15625l4.300781-4.300781c2.082031-2.082031 2.550781-5.28125 1.15625-7.875l-4.800781-8.910156c-1.453125-2.699219-1.613281-5.910156-.4375-8.746094.011719-.027344.023438-.054688.035156-.085938 1.171875-2.832031 3.554688-4.980468 6.488282-5.859374l9.695312-2.910157c2.820312-.847656 4.75-3.441406 4.75-6.386719v-6.078124c0-2.945313-1.929688-5.539063-4.75-6.386719zm-60.25 37.09375c-15.28125 0-27.667969-12.386719-27.667969-27.667969s12.386719-27.667969 27.667969-27.667969 27.667969 12.386719 27.667969 27.667969-12.386719 27.667969-27.667969 27.667969zm0 0" fill="#89e9d9"/></svg>