<?xml version="1.0" encoding="iso-8859-1"?>
<!-- Generator: Adobe Illustrator 19.0.0, SVG Export Plug-In . SVG Version: 6.00 Build 0)  -->
<svg version="1.1" id="Capa_1" xmlns="http://www.w3.org/2000/svg" xmlns:xlink="http://www.w3.org/1999/xlink" x="0px" y="0px"
	 viewBox="0 0 436.907 436.907" style="enable-background:new 0 0 436.907 436.907;" xml:space="preserve">
<circle style="fill:#E05B49;" cx="218.453" cy="218.453" r="218.453"/>
<path style="opacity:0.1;enable-background:new    ;" d="M232.797,119.279l-5.257-5.222H90.734v218.692l102.687,102.687
	c8.219,0.938,16.562,1.471,25.032,1.471c111.54,0,203.489-83.614,216.748-191.569L293.93,104.09L232.797,119.279z"/>
<rect x="159.164" y="114.039" style="fill:#3A556A;" width="68.403" height="212.582"/>
<rect x="90.747" y="114.039" style="fill:#FCD462;" width="68.403" height="212.582"/>
<rect x="90.747" y="326.622" style="fill:#F6C358;" width="68.403" height="6.127"/>
<rect x="159.164" y="326.622" style="fill:#2F4859;" width="68.403" height="6.127"/>
<g>
	<rect x="99.738" y="130.048" style="fill:#DC8744;" width="50.442" height="79.292"/>
	<rect x="99.738" y="289.314" style="fill:#DC8744;" width="50.442" height="6.741"/>
	<rect x="99.738" y="274.773" style="fill:#DC8744;" width="50.442" height="6.741"/>
	<rect x="99.738" y="303.889" style="fill:#DC8744;" width="50.442" height="6.741"/>
</g>
<g>
	<rect x="168.141" y="130.048" style="fill:#EBF0F3;" width="50.442" height="79.292"/>
	<rect x="168.141" y="289.314" style="fill:#EBF0F3;" width="50.442" height="6.741"/>
	<rect x="168.141" y="274.773" style="fill:#EBF0F3;" width="50.442" height="6.741"/>
	<rect x="168.141" y="303.889" style="fill:#EBF0F3;" width="50.442" height="6.741"/>
</g>
<rect x="252.22" y="109.182" transform="matrix(-0.9704 0.2415 -0.2415 -0.9704 616.4007 355.4008)" style="fill:#27A2DB;" width="68.403" height="212.582"/>
<rect x="278.632" y="318.528" transform="matrix(-0.9704 0.2415 -0.2415 -0.9704 694.07 558.1174)" style="fill:#1C75A1;" width="68.403" height="6.127"/>
<g>
	
		<rect x="248.966" y="126.701" transform="matrix(-0.9704 0.2415 -0.2415 -0.9704 580.4294 261.5558)" style="fill:#EBF0F3;" width="50.442" height="79.291"/>
	
		<rect x="278.663" y="282.313" transform="matrix(-0.9704 0.2415 -0.2415 -0.9704 667.7648 489.5271)" style="fill:#EBF0F3;" width="50.442" height="6.741"/>
	
		<rect x="275.147" y="268.183" transform="matrix(-0.9704 0.2415 -0.2415 -0.9704 657.4232 462.5341)" style="fill:#EBF0F3;" width="50.442" height="6.741"/>
	
		<rect x="282.18" y="296.443" transform="matrix(-0.9704 0.2415 -0.2415 -0.9704 678.1064 516.5201)" style="fill:#EBF0F3;" width="50.442" height="6.741"/>
</g>
<g>
</g>
<g>
</g>
<g>
</g>
<g>
</g>
<g>
</g>
<g>
</g>
<g>
</g>
<g>
</g>
<g>
</g>
<g>
</g>
<g>
</g>
<g>
</g>
<g>
</g>
<g>
</g>
<g>
</g>
</svg>
