<svg height="512" viewBox="0 0 512 512" width="512" xmlns="http://www.w3.org/2000/svg"><g><g><rect fill="#2d2d30" height="320" rx="20" width="480" x="16" y="96"/><path d="m376 416h-240l32-64h176z" fill="#ffda44"/><path d="m456 312h-400v-136l40-40h320l40 40z" fill="#ffda44"/><g fill="#2d2d30"><circle cx="48" cy="128" r="8"/><circle cx="464" cy="128" r="8"/><circle cx="48" cy="384" r="8"/><circle cx="464" cy="384" r="8"/></g><circle cx="128" cy="232" fill="#898890" r="40"/><circle cx="384" cy="232" fill="#898890" r="40"/><path d="m200 200h112v64h-112z" fill="#898890"/></g><g><path d="m476 88h-440a28.031 28.031 0 0 0 -28 28v280a28.031 28.031 0 0 0 28 28h440a28.031 28.031 0 0 0 28-28v-280a28.031 28.031 0 0 0 -28-28zm-327.06 320 24-48h166.12l24 48zm339.06-12a12.01 12.01 0 0 1 -12 12h-95.06l-29.78-59.58a8.011 8.011 0 0 0 -7.16-4.42h-176a8.011 8.011 0 0 0 -7.16 4.42l-29.78 59.58h-95.06a12.01 12.01 0 0 1 -12-12v-280a12.01 12.01 0 0 1 12-12h440a12.01 12.01 0 0 1 12 12z"/><path d="m461.66 170.34-40-40a8.008 8.008 0 0 0 -5.66-2.34h-320a8.008 8.008 0 0 0 -5.66 2.34l-40 40a8.008 8.008 0 0 0 -2.34 5.66v136a8 8 0 0 0 8 8h400a8 8 0 0 0 8-8v-136a8.008 8.008 0 0 0 -2.34-5.66zm-13.66 133.66h-384v-124.69l35.31-35.31h313.38l35.31 35.31z"/><circle cx="48" cy="128" r="8"/><circle cx="464" cy="128" r="8"/><circle cx="48" cy="384" r="8"/><circle cx="464" cy="384" r="8"/><path d="m128 184a48 48 0 1 0 48 48 48.054 48.054 0 0 0 -48-48zm8 78.987v-6.987a8 8 0 0 0 -16 0v6.987a32.118 32.118 0 0 1 -22.987-22.987h6.987a8 8 0 0 0 0-16h-6.987a32.118 32.118 0 0 1 22.987-22.987v6.987a8 8 0 0 0 16 0v-6.987a32.118 32.118 0 0 1 22.987 22.987h-6.987a8 8 0 0 0 0 16h6.987a32.118 32.118 0 0 1 -22.987 22.987z"/><path d="m336 232a48 48 0 1 0 48-48 48.054 48.054 0 0 0 -48 48zm78.987-8h-6.987a8 8 0 0 0 0 16h6.987a32.118 32.118 0 0 1 -22.987 22.987v-6.987a8 8 0 0 0 -16 0v6.987a32.118 32.118 0 0 1 -22.987-22.987h6.987a8 8 0 0 0 0-16h-6.987a32.118 32.118 0 0 1 22.987-22.987v6.987a8 8 0 0 0 16 0v-6.987a32.118 32.118 0 0 1 22.987 22.987z"/><path d="m312 192h-112a8 8 0 0 0 -8 8v64a8 8 0 0 0 8 8h112a8 8 0 0 0 8-8v-64a8 8 0 0 0 -8-8zm-8 64h-96v-48h96z"/></g></g></svg>