<svg id="Capa_1" enable-background="new 0 0 512 512" height="512" viewBox="0 0 512 512" width="512" xmlns="http://www.w3.org/2000/svg"><g><g><g><g><g><g><g><circle cx="256" cy="256" fill="#2fddd0" r="256"/></g></g></g></g></g></g><path d="m512 256c0-13.973-1.12-27.685-3.274-41.051l-89.102-89.102-9.309 8.94-60.478-60.478-264.631 289.026 147.631 147.632c7.63.683 15.356 1.033 23.163 1.033 141.385 0 256-114.615 256-256z" fill="#11bfae"/><g><path d="m92.376 125.847h327.248v217.068h-327.248z" fill="#707789"/></g><g><path d="m256 125.847h163.624v217.068h-163.624z" fill="#555a66"/></g><g><path d="m122.764 151.556h266.473v179.238h-266.473z" fill="#fff"/></g><g><path d="m256 151.556h133.237v179.238h-133.237z" fill="#e9edf5"/></g><g><path d="m402.663 374.153h-293.326c-17.859 0-32.337-14.478-32.337-32.337v-20.712h358v20.712c0 17.859-14.478 32.337-32.337 32.337z" fill="#555a66"/></g><g><path d="m256 321.105v53.048h146.664c17.859 0 32.336-14.478 32.336-32.336v-20.712z" fill="#333940"/></g><g><path d="m329.681 222.343h-147.362c-11.132 0-20.155-9.024-20.155-20.155v-109.508h103.994l19.414-18.371h64.264v127.879c0 11.131-9.024 20.155-20.155 20.155z" fill="#ffce00"/></g><g><path d="m285.572 74.309-19.414 18.371h-10.158v129.664h73.681c11.132 0 20.155-9.024 20.155-20.155v-127.88z" fill="#fdba12"/></g><g><path d="m285.298 237.241-14.298 14.298v-81.372h-30v81.372l-14.298-14.298-21.213 21.213 50.511 50.511 50.511-50.51z" fill="#fe6a16"/><path d="m256 308.965 50.511-50.51-21.213-21.214-14.298 14.298v-81.372h-15z" fill="#f24500"/></g></g></svg>