<svg height="512pt" viewBox="-26 0 511 512" width="512pt" xmlns="http://www.w3.org/2000/svg"><path d="m454.699219 256c0 124.042969-100.554688 224.601562-224.597657 224.601562-124.042968 0-224.601562-100.558593-224.601562-224.601562s100.558594-224.601562 224.601562-224.601562c124.042969 0 224.597657 100.558593 224.597657 224.601562zm0 0" fill="#55acd5"/><g fill="#6dcc6d"><path d="m434.300781 259.800781h-.601562c-6.800781 0-12.398438-5.601562-12.398438-12.402343 0-5 3-9.398438 7.597657-11.398438l23.800781-10.199219c-11-80.199219-64.199219-148.199219-139.199219-178.199219v31.398438c0 9.398438 7.601562 17 17 17s17 7.601562 17 17v52c0 3.601562-1.601562 7-4.398438 9.398438-8 7-12.601562 17-12.601562 27.601562v3.199219c0 19.402343 9.199219 37.601562 24.601562 49.199219l34.398438 25.800781c2.199219 1.601562 4.800781 2.402343 7.398438 2.402343h12.800781c6.800781 0 12.402343 5.597657 12.402343 12.398438v8.199219c0 3.800781-1.800781 7.402343-4.800781 9.800781l-8.402343 6.398438c-30.597657 23.800781-41.199219 65.402343-25.597657 101 41.199219-38.398438 66.398438-90.796876 70.800781-146.796876l-11-10.402343c-2.601562-2.199219-5.601562-3.398438-8.800781-3.398438zm0 0"/><path d="m230.101562 31.398438c-121.402343 0-220.800781 96.601562-224.402343 217.800781l48.199219-48.199219c4.203124-4.199219 11-4.199219 15.203124 0 .597657.601562 1 1 1.398438 1.601562 8.398438 12.597657 15.398438 26.199219 21 40.398438l8.601562 22.199219c4.597657 11.800781 13.398438 21.601562 24.796876 27.402343l31 15.597657c1.601562.800781 2.800781 2 3.402343 3.601562l4.597657 11.398438c1 2.601562 3.800781 4.402343 6.601562 4.402343 4 0 7.199219-3.203124 7.199219-7.203124 0-.597657 0-1-.199219-1.597657l-4-18c-.398438-1.402343-1.199219-2.800781-2.199219-3.800781l-28.800781-25.398438c-2.199219-1.800781-3-4.800781-2-7.601562l10-31.601562c1-3 3.601562-5 6.800781-5 14.398438 0 28.398438-4.796876 39.597657-13.597657l33.800781-26.601562c8.601562-6.800781 13.800781-17.199219 13.800781-28.199219 0-13.800781-8-26.398438-20.398438-32.398438l-7-3.402343c-2.402343-1.199219-4-3.597657-4-6.398438v-15.601562c0-2 .796876-3.800781 2.199219-5l36.199219-35.800781c1.398438-1.398438 3.199219-2 5-2h12.601562c4 0 7.199219-3.199219 7.199219-7.199219v-15.398438c-15.402343-2.800781-30.800781-4.402343-46.199219-4.402343zm0 0"/><path d="m271.300781 350.800781c-5.800781 0-10.402343 4.597657-10.402343 10.398438 0 5.199219-3.199219 10-8 12l-21.597657 9.199219c-8.199219 3.601562-17 5.402343-26 5.402343h-32.199219c-9 0-16.203124 7.199219-16.203124 16.199219s-7.199219 16.199219-16.199219 16.199219h-7.597657c-9 0-16.203124 7.199219-16.203124 16.199219v13.402343c64.601562 37.597657 143.601562 40.800781 211 8.199219v-9.601562c0-13.796876-2.796876-27.398438-8-40-4.398438-10.398438-10.398438-20.199219-18-28.597657l-22.796876-25.601562c-2-2.199219-4.800781-3.398438-7.800781-3.398438zm0 0"/><path d="m36.300781 245-8 9c-1.601562 1.800781-2.402343 4-2.402343 6.398438v6.203124c0 5.398438 4.402343 9.796876 9.800781 9.796876 5.402343 0 9.800781-4.398438 9.800781-9.796876v-18.203124c0-3-2.398438-5.199219-5.199219-5.199219-1.601562 0-3 .601562-4 1.800781zm0 0"/><path d="m268.101562 80.398438-20.800781 21.601562c-2.199219 2.199219-2 5.601562.199219 7.800781 1 1 2.398438 1.597657 3.800781 1.597657 14.398438 0 26.199219-11.796876 26.199219-26.199219v-.800781c0-3-2.398438-5.398438-5.601562-5.398438-1.398438-.199219-2.796876.398438-3.796876 1.398438zm0 0"/><path d="m249.101562 209.800781-5.402343 7.800781c-2.398438 3.398438-5.800781 6.398438-9.597657 8.199219l-21.203124 10.800781c-2.398438 1.199219-4 3.796876-4 6.597657 0 4 3.203124 7.199219 7.203124 7.199219 2.597657 0 5-.398438 7.398438-1.398438l24.398438-9c11.601562-4.199219 21.203124-12.800781 26.800781-23.800781 2.601562-5 .601562-11.398438-4.398438-14-1.402343-.800781-3-1.199219-4.800781-1.199219-6.398438.398438-12.601562 3.601562-16.398438 8.800781zm0 0"/><path d="m87.898438 493.398438h-3.597657v-3.597657c0-2.800781-2.199219-5-5-5s-5 2.199219-5 5v3.597657h-3.601562c-2.800781 0-5 2.203124-5 5 0 2.800781 2.199219 5 5 5h3.601562v3.601562c0 2.800781 2.199219 5 5 5s5-2.199219 5-5v-3.601562h3.597657c2.800781 0 5-2.199219 5-5 0-2.796876-2.199219-5-5-5zm0 0"/><path d="m339.300781 30.398438c0-.398438-.199219-.597657-.199219-1-.203124-.199219-.203124-.597657-.402343-.796876-.199219-.203124-.398438-.601562-.597657-.800781-2-1.800781-5-1.800781-7 0-.203124.199219-.402343.398438-.601562.800781-.398438.597657-.601562 1.199219-.800781 1.796876-.199219.601562-.199219 1.402343 0 2 0 .402343.199219.601562.199219 1 .203124.402343.203124.601562.402343.800781s.398438.601562.597657.800781c2 2 5 2 7 0 .203124-.199219.402343-.398438.601562-.800781.199219-.199219.398438-.597657.398438-.800781.203124-.199219.203124-.597657.203124-1 .199219-.597657.199219-1.199219.199219-2zm0 0"/></g><path d="m72.101562 447.601562c0-.402343-.203124-.601562-.203124-1-.199219-.203124-.199219-.601562-.398438-.800781s-.398438-.601562-.601562-.800781c-2-1.800781-5-1.800781-7 0-.199219.199219-.398438.398438-.597657.800781-.402343.597657-.601562 1.199219-.800781 1.800781-.199219.597657-.199219 1.398438 0 2 0 .398438.199219.597657.199219 1 .199219.398438.199219.597657.402343.796876.199219.203124.398438.601562.597657.800781 2 2 5 2 7 0 .199219-.199219.402343-.398438.601562-.800781.199219-.199219.398438-.597657.398438-.796876.199219-.203124.199219-.601562.199219-1 .402343-.601562.402343-1.402343.203124-2zm0 0" fill="#55acd5"/><path d="m394.300781 16.398438c-8.199219-1.597657-14.402343-8-16-16 0-.199219-.199219-.398438-.402343-.398438-.199219 0-.199219.199219-.398438.398438-1.601562 8.203124-8 14.402343-16 16-.199219 0-.398438.203124-.398438.402343s.199219.199219.398438.398438c8.199219 1.601562 14.398438 8 16 16 0 .199219.199219.402343.398438.402343.203124 0 .203124-.203124.402343-.402343 1.597657-8.199219 8-14.398438 16-16 .199219 0 .398438-.199219.398438-.398438 0-.402343-.199219-.402343-.398438-.402343zm0 0" fill="#ffcd29"/><path d="m34.101562 421.601562c-5.203124-1-9.203124-5-10.203124-10.203124 0-.199219-.199219-.199219-.199219-.199219s-.199219 0-.199219.199219c-1 5.203124-5 9.203124-10.199219 10.203124-.199219 0-.199219.199219-.199219.199219s0 .199219.199219.199219c5.199219 1 9.199219 5 10.199219 10.199219 0 .199219.199219.199219.199219.199219s.199219 0 .199219-.199219c1-5.199219 5-9.199219 10.203124-10.199219.199219 0 .199219-.199219 0-.398438.199219 0 .199219 0 0 0zm0 0" fill="#ea4647"/><path d="m230.101562 485.601562c-126.800781 0-229.601562-102.800781-229.601562-229.601562s102.800781-229.601562 229.601562-229.601562c126.796876 0 229.597657 102.800781 229.597657 229.601562-.199219 126.601562-103 229.398438-229.597657 229.601562zm0-449.203124c-121.203124 0-219.601562 98.402343-219.601562 219.601562s98.398438 219.601562 219.601562 219.601562c121.199219 0 219.597657-98.402343 219.597657-219.601562-.199219-121.199219-98.398438-219.398438-219.597657-219.601562zm0 0"/><path d="m313.300781 367.398438c-2.199219 0-4-1.398438-4.800781-3.398438l-4-11.601562c-1-2.597657.398438-5.398438 3-6.398438s5.398438.398438 6.398438 3v.199219l4 11.601562c.800781 2.597657-.597657 5.398438-3.199219 6.398438-.398438.199219-1 .199219-1.398438.199219zm0 0"/><path d="m293.898438 116.199219c-2.796876 0-5-2.199219-5-5v-7.597657c0-2.800781 2.203124-5 5-5 2.800781 0 5 2.199219 5 5v7.597657c0 2.800781-2.199219 5-5 5zm0 0"/><path d="m370.300781 296.800781c-1 0-1.800781-.199219-2.601562-.800781l-8.597657-5.398438c-2.402343-1.402343-3-4.601562-1.601562-6.800781s4.601562-3 6.800781-1.601562l8.597657 5.402343c2.402343 1.398438 3 4.597657 1.601562 6.796876-.800781 1.402343-2.601562 2.402343-4.199219 2.402343zm0 0"/><path d="m378.300781 316c-.402343 0-.601562 0-1-.199219-.402343 0-.601562-.199219-1-.199219-.199219-.203124-.601562-.203124-.800781-.402343s-.601562-.398438-.800781-.597657c-.199219-.203124-.398438-.402343-.597657-.800781-.203124-.199219-.402343-.601562-.402343-.800781-.199219-.398438-.199219-.601562-.199219-1s0-.601562-.199219-1c0-1 .199219-2 .800781-2.800781.199219-.199219.398438-.597657.597657-.800781.199219-.199219.402343-.398438.800781-.597657.199219-.199219.601562-.402343.800781-.402343 1.800781-.796876 4-.398438 5.398438 1 .199219.203124.402343.402343.601562.800781.398438.601562.597657 1.199219.800781 1.800781 0 .398438 0 .601562.199219 1 0 .601562-.199219 1.398438-.402343 2-.199219.398438-.199219.601562-.398438.800781s-.398438.597657-.601562.800781c-1 1-2.398438 1.398438-3.597657 1.398438zm0 0"/><path d="m383.101562 425.199219c-2 0-3.800781-1.199219-4.601562-3-16.601562-37.597657-5.398438-81.800781 27.199219-107l8.402343-6.398438c1.796876-1.402343 2.796876-3.601562 2.796876-5.800781v-8.199219c0-4.199219-3.398438-7.402343-7.398438-7.402343h-12.800781c-3.800781 0-7.398438-1.199219-10.398438-3.398438l-34.402343-25.800781c-16.796876-12.597657-26.597657-32.398438-26.597657-53.199219v-3.199219c0-12 5.199219-23.601562 14.398438-31.402343 1.601562-1.398438 2.601562-3.398438 2.601562-5.597657v-52c0-6.601562-5.402343-12-12-12-12.199219 0-22-9.800781-22-22v-31.402343c0-2.796876 2.199219-5 5-5 .597657 0 1.199219.203124 1.800781.402343 76.796876 30.597657 131.199219 100.199219 142.398438 182.199219.398438 2.199219-1 4.398438-3 5.199219l-23.800781 10.199219c-3.800781 1.601562-5.597657 6-4 9.800781 1.199219 2.800781 3.800781 4.601562 6.800781 4.601562h.601562c4.398438 0 8.597657 1.597657 11.796876 4.597657l11 10.402343c1.203124 1 1.601562 2.597657 1.601562 4-4.398438 57.398438-30.199219 111-72.398438 150.199219-.402343.800781-1.601562 1.199219-3 1.199219zm-64.800781-370.199219v23.800781c0 6.597657 5.398438 12 12 12 12.199219 0 22 9.800781 22 22v52c0 5-2.199219 10-6 13.199219-7 6-11 14.800781-11 24v3.199219c0 17.800781 8.398438 34.601562 22.597657 45.199219l34.402343 25.800781c1.199219 1 2.800781 1.402343 4.398438 1.402343h12.800781c9.601562 0 17.398438 7.796876 17.398438 17.398438v8.199219c0 5.402343-2.398438 10.601562-6.796876 13.800781l-8.402343 6.398438c-26.800781 20.800781-37.597657 56-26.800781 88.203124 36.601562-36.402343 59.203124-84.601562 63.601562-136l-9.398438-8.601562c-1.402343-1.199219-3.203124-2-5-2h-.601562c-9.601562 0-17.398438-7.800781-17.398438-17.398438 0-7 4.199219-13.203124 10.597657-16l20.199219-8.601562c-11.398438-74.601562-59.796876-137.800781-128.597657-168zm0 0"/><path d="m170.5 332.800781c-5 0-9.398438-3-11.199219-7.601562l-4.601562-11.398438c-.199219-.402343-.597657-.800781-1-1.199219l-31-15.601562c-12.398438-6.199219-22.199219-17-27.199219-30l-8.601562-22.199219c-5.398438-13.800781-12.199219-27.199219-20.398438-39.402343-1.800781-2.597657-5.398438-3.398438-8-1.597657-.398438.199219-.601562.398438-.800781.800781l-48.199219 48.199219c-2 2-5.199219 2-7 0-1-1-1.601562-2.402343-1.398438-3.601562 3.398438-124 105-222.800781 229-222.800781 15.796876 0 31.398438 1.601562 46.796876 4.800781 2.402343.402343 4 2.601562 4 4.800781v15.398438c0 6.601562-5.398438 12.203124-12.199219 12.203124h-12.597657c-.601562 0-1 .199219-1.402343.597657l-36.199219 35.800781c-.398438.398438-.601562 1-.601562 1.601562v15.597657c0 .800781.402343 1.601562 1.203124 2l7 3.402343c14.199219 6.796876 23.199219 21.199219 23.199219 36.796876 0 12.601562-5.800781 24.402343-15.601562 32l-33.800781 26.601562c-12.199219 9.601562-27.199219 14.800781-42.796876 14.800781-1 0-1.800781.597657-2 1.398438l-10 31.601562c-.203124.800781 0 1.597657.597657 2.199219l28.800781 25.398438c2 1.601562 3.199219 4 3.800781 6.402343l4 18c1.398438 6.597657-2.601562 13-9.199219 14.398438-.800781.402343-1.800781.601562-2.601562.601562zm-109-140h1.601562c4.796876.398438 9 3 11.597657 7 8.601562 13 15.800781 26.800781 21.601562 41.398438l8.597657 22.199219c4.203124 10.800781 12.203124 19.601562 22.402343 24.601562l31 15.601562c2.597657 1.398438 4.597657 3.597657 5.800781 6.199219l4.597657 11.398438c.402343 1 1.601562 1.601562 2.800781 1.199219 1-.398438 1.601562-1.398438 1.199219-2.398438l-4-18c0-.398438-.398438-.800781-.597657-1.199219l-28.800781-25.402343c-3.601562-3.199219-5-8.199219-3.601562-12.796876l10-31.601562c1.601562-5 6.199219-8.398438 11.601562-8.398438 13.199219 0 26.199219-4.402343 36.597657-12.601562l33.800781-26.601562c7.402343-5.796876 11.800781-14.796876 11.800781-24.199219 0-11.800781-6.800781-22.597657-17.601562-27.800781l-7-3.398438c-4.199219-2-7-6.199219-7-11v-15.601562c0-3.199219 1.203124-6.398438 3.601562-8.597657l36.199219-35.800781c2.199219-2.199219 5.402343-3.601562 8.601562-3.601562h12.597657c1.203124 0 2.203124-1 2.203124-2.199219v-11.398438c-13.402343-2.601562-27.203124-3.800781-40.800781-3.800781-113.601562 0-208.601562 86.800781-218.601562 200l39-39c2.601562-2.398438 6.601562-4.199219 10.800781-4.199219zm0 0"/><path d="m230.101562 485.601562c-40.601562 0-80.601562-10.800781-115.601562-31.203124-1.601562-.796876-2.398438-2.597657-2.398438-4.398438v-13.398438c0-11.800781 9.597657-21.203124 21.199219-21.203124h7.597657c6.203124 0 11.203124-5 11.203124-11.199219 0-11.800781 9.597657-21.199219 21.199219-21.199219h32.199219c8.199219 0 16.398438-1.601562 24-5l21.601562-9.199219c3-1.199219 5-4.199219 5-7.402343 0-8.398438 6.796876-15.398438 15.398438-15.398438 4.398438 0 8.601562 1.800781 11.398438 5.199219l22.800781 25.601562c17.601562 19.800781 27.402343 45.398438 27.402343 72v9.597657c0 2-1 3.601562-2.800781 4.402343-31.402343 15-65.601562 22.800781-100.199219 22.800781zm-108.203124-38.601562c61.800781 35 136.601562 37.800781 201 8v-6.398438c0-24-8.796876-47.402343-24.796876-65.203124l-22.800781-25.597657c-2-2.199219-5.402343-2.402343-7.601562-.402343-1.199219 1-1.800781 2.402343-1.800781 4 0 7.203124-4.398438 13.800781-11 16.601562l-21.597657 9.199219c-8.800781 3.800781-18.402343 5.800781-28 5.800781h-32.199219c-6.203124 0-11.203124 5-11.203124 11.199219 0 11.800781-9.597657 21.199219-21.199219 21.199219h-7.398438c-6.199219 0-11.199219 5-11.199219 11.203124v10.398438zm206 11.199219"/><path d="m35.699219 281.398438c-8.199219 0-14.800781-6.597657-14.800781-14.796876v-6.203124c0-3.597657 1.203124-7 3.601562-9.796876l8-9c3.800781-4.203124 10.199219-4.800781 14.398438-1 2.203124 2 3.601562 4.796876 3.601562 7.796876v18.203124c0 8.199219-6.601562 14.796876-14.800781 14.796876zm4.402343-33.199219-8 9c-.800781.800781-1.203124 2-1.203124 3.199219v6.203124c0 2.597657 2.203124 4.796876 4.800781 4.597657 2.601562 0 4.601562-2.199219 4.601562-4.597657v-18.203124c.199219-.199219 0-.199219-.199219-.199219zm0 0"/><path d="m251.300781 116.199219c-5.800781 0-10.402343-4.800781-10.402343-10.597657 0-2.800781 1-5.402343 3-7.203124l20.601562-21.398438c4-4.199219 10.601562-4.398438 14.800781-.199219 2 2 3.199219 4.800781 3.199219 7.597657v.800781c0 17.199219-14 31-31.199219 31zm20.398438-32.199219-20.597657 21.398438c-.203124.203124-.203124.601562 0 .800781 0 0 .199219.199219.398438.199219 11.601562 0 21.199219-9.398438 21.199219-21.199219v-.800781c0-.199219-.199219-.398438-.398438-.398438-.199219-.199219-.601562-.199219-.601562 0zm0 0"/><path d="m216.300781 255.398438c-6.800781 0-12.199219-5.597657-12.199219-12.199219 0-4.597657 2.597657-8.800781 6.796876-11l21.203124-10.800781c3-1.597657 5.796876-3.796876 7.796876-6.597657l5.402343-7.800781c4.800781-6.601562 12.398438-10.601562 20.597657-10.601562 8.402343 0 15.402343 6.800781 15.402343 15.402343 0 2.398438-.601562 4.800781-1.800781 7-6.199219 12-16.800781 21.398438-29.601562 26.199219l-24.398438 9c-3 1-6.199219 1.398438-9.199219 1.398438zm36.800781-42.597657-5.402343 7.800781c-3 4.199219-6.800781 7.597657-11.398438 9.796876l-21.199219 10.800781c-1.203124.601562-1.601562 2-1 3 .398438.800781 1.199219 1.199219 2 1.199219 2 0 3.796876-.398438 5.597657-1l24.402343-9c10.398438-3.796876 19-11.398438 24.199219-21.398438 1.398438-2.601562.398438-5.800781-2.199219-7.199219-.800781-.402343-1.601562-.601562-2.402343-.601562-5 .199219-9.597657 2.601562-12.597657 6.601562zm0 0"/></svg>